<svg width="940" height="577" viewBox="0 0 940 577" fill="none" xmlns="http://www.w3.org/2000/svg">
<path d="M488 180.33C488 246.052 378.757 299.33 244 299.33C109.243 299.33 0 246.052 0 180.33C0 114.608 109.243 61.3303 244 61.3303C378.757 61.3303 488 114.608 488 180.33Z" fill="#FF9100"/>
<path d="M786 125.33C786 191.052 676.757 244.33 542 244.33C407.243 244.33 298 191.052 298 125.33C298 59.6084 407.243 6.33033 542 6.33033C676.757 6.33033 786 59.6084 786 125.33Z" fill="#FF9100"/>
<path d="M935.612 54.6837C958.791 116.183 875.357 204.564 749.258 252.09C623.159 299.615 502.146 288.287 478.968 226.788C455.79 165.289 539.223 76.907 665.322 29.3818C791.421 -18.1434 912.434 -6.81533 935.612 54.6837Z" fill="#FF9100"/>
<path d="M748.612 236.684C771.791 298.183 688.357 386.564 562.258 434.09C436.159 481.615 315.146 470.287 291.968 408.788C268.79 347.289 352.223 258.907 478.322 211.382C604.421 163.857 725.434 175.185 748.612 236.684Z" fill="#FF9100"/>
<path d="M516.126 406.334C509.857 471.756 396.031 514.372 261.888 501.518C127.745 488.665 24.0821 425.21 30.3508 359.788C36.6194 294.366 150.446 251.75 284.589 264.603C418.732 277.457 522.395 340.912 516.126 406.334Z" fill="#FF9100"/>
<path d="M818.125 479.334C811.857 544.756 698.031 587.372 563.888 574.518C429.744 561.665 326.082 498.21 332.35 432.788C338.619 367.366 452.445 324.75 586.588 337.603C720.731 350.457 824.394 413.912 818.125 479.334Z" fill="#FF9100"/>
</svg>
