<svg width="57" height="57" viewBox="0 0 57 57" fill="none" xmlns="http://www.w3.org/2000/svg">
<path d="M15.6477 3C17.0932 3 22.875 16.0091 22.875 17.4545C22.875 20.3455 18.5386 23.2364 17.0932 26.1273C15.6477 29.0182 18.5386 31.9091 21.4295 34.8C22.557 35.9275 27.2114 40.5818 30.1023 39.1364C32.9932 37.6909 35.8841 33.3545 38.775 33.3545C40.2205 33.3545 53.2295 39.1364 53.2295 40.5818C53.2295 46.3636 48.8932 50.7 44.5568 52.1455C40.2205 53.5909 37.3295 53.5909 31.5477 52.1455C25.7659 50.7 21.4295 49.2545 14.2023 42.0273C6.975 34.8 5.52955 30.4636 4.08409 24.6818C2.63864 18.9 2.63864 16.0091 4.08409 11.6727C5.52955 7.33636 9.86591 3 15.6477 3Z" stroke="black" stroke-width="5.78182" stroke-linecap="round" stroke-linejoin="round"/>
</svg>
