<svg width="120" height="120" viewBox="0 0 120 120" fill="none" xmlns="http://www.w3.org/2000/svg">
<path d="M36.56 45.0003H28.44L17.5 75.0003H25.535L27.765 68.8703H37.235L39.465 75.0003H47.5L36.56 45.0003ZM29.59 63.8703L32.5 55.9003L35.41 63.8753L29.59 63.8703ZM73.72 45.0003H56.22V75.0003H63.72V65.0003H73.72C74.71 65.0186 75.6934 64.8371 76.6117 64.4667C77.5299 64.0963 78.364 63.5445 79.0641 62.8444C79.7642 62.1443 80.316 61.3102 80.6864 60.3919C81.0568 59.4737 81.2383 58.4902 81.22 57.5003V52.5003C81.2383 51.5103 81.0568 50.5268 80.6864 49.6086C80.316 48.6904 79.7642 47.8563 79.0641 47.1562C78.364 46.4561 77.5299 45.9043 76.6117 45.5339C75.6934 45.1634 74.71 44.982 73.72 45.0003ZM73.72 57.5003H63.72V52.5003H73.72V57.5003ZM90 45.0003H97.5V75.0003H90V45.0003Z" fill="white"/>
<path d="M110 30V90H10V30H110ZM110 20H10C7.34784 20 4.8043 21.0536 2.92893 22.9289C1.05357 24.8043 0 27.3478 0 30L0 90C0 92.6522 1.05357 95.1957 2.92893 97.0711C4.8043 98.9464 7.34784 100 10 100H110C112.652 100 115.196 98.9464 117.071 97.0711C118.946 95.1957 120 92.6522 120 90V30C120 27.3478 118.946 24.8043 117.071 22.9289C115.196 21.0536 112.652 20 110 20Z" fill="white"/>
</svg>
