<svg width="80" height="113" viewBox="0 0 80 113" fill="none" xmlns="http://www.w3.org/2000/svg">
<g clip-path="url(#clip0_2016_106)">
<path d="M39.9509 112.715L7.39398 103.662L0.138672 22.1514H79.8605L72.5977 103.649L39.9509 112.715Z" fill="#264DE4"/>
<path d="M66.3803 98.4591L72.5866 28.8154H40V105.785L66.3803 98.4591Z" fill="#2965F1"/>
<path d="M16.7721 59.0464L17.6665 69.0433H40.0005V59.0464H16.7721ZM14.9746 38.8125L15.8818 48.8094H40.0005V38.8125H14.9746ZM40.0005 85.0095L39.9568 85.021L28.8418 82.0148L28.1312 74.0419H18.1124L19.5105 89.7386L39.9546 95.423L40.0005 95.4105V85.0095Z" fill="#EBEBEB"/>
<path d="M18.9004 0H30.9879V5.0634H23.9554V10.1268H30.9885V15.1899H18.9004V0ZM33.4057 0H45.4935V4.40293H38.4607V5.28345H45.4935V15.4103H33.406V10.7866H40.4388V9.90612H33.4054L33.4057 0ZM47.9113 0H59.9991V4.40293H52.9663V5.28345H59.9991V15.4103H47.9113V10.7866H54.9441V9.90612H47.9116L47.9113 0Z" fill="white"/>
<path d="M63.1642 59.0464L64.9658 38.8125H39.9652V48.8094H54.0283L53.1202 59.0464H39.9652V69.0433H52.2548L51.0961 82.0086L39.9648 85.0179V95.4183L60.4252 89.7386L60.5752 88.0495L62.9208 61.7308L63.1642 59.0464Z" fill="white"/>
</g>
<defs>
<clipPath id="clip0_2016_106">
<rect width="80" height="113" fill="white"/>
</clipPath>
</defs>
</svg>
