<svg width="81" height="81" viewBox="0 0 81 81" fill="none" xmlns="http://www.w3.org/2000/svg">
<g clip-path="url(#clip0_2016_132)">
<path d="M28.793 81.6328C36.3234 81.6328 42.3984 75.5578 42.3984 68.0273V54.4219H28.793C21.2625 54.4219 15.1875 60.4969 15.1875 68.0273C15.1875 75.5578 21.2625 81.6328 28.793 81.6328Z" fill="#0ACF83"/>
<path d="M15.1875 40.8164C15.1875 33.2859 21.2625 27.2109 28.793 27.2109H42.3984V54.4219H28.793C21.2625 54.4219 15.1875 48.3469 15.1875 40.8164Z" fill="#A259FF"/>
<path d="M15.1875 13.6055C15.1875 6.075 21.2625 0 28.793 0H42.3984V27.2109H28.793C21.2625 27.2109 15.1875 21.1359 15.1875 13.6055Z" fill="#F24E1E"/>
<path d="M42.3984 0H56.0039C63.5344 0 69.6094 6.075 69.6094 13.6055C69.6094 21.1359 63.5344 27.2109 56.0039 27.2109H42.3984V0Z" fill="#FF7262"/>
<path d="M69.6094 40.8164C69.6094 48.3469 63.5344 54.4219 56.0039 54.4219C48.4734 54.4219 42.3984 48.3469 42.3984 40.8164C42.3984 33.2859 48.4734 27.2109 56.0039 27.2109C63.5344 27.2109 69.6094 33.2859 69.6094 40.8164Z" fill="#1ABCFE"/>
</g>
<defs>
<clipPath id="clip0_2016_132">
<rect width="81" height="81" fill="white"/>
</clipPath>
</defs>
</svg>
