<svg width="84" height="106" viewBox="0 0 84 106" fill="none" xmlns="http://www.w3.org/2000/svg">
<g clip-path="url(#clip0_2016_184)">
<path d="M26.3086 102.805C30.7235 104.588 35.5125 105.646 40.5413 105.822C47.1094 106.057 53.6403 104.736 59.6048 101.967C52.6665 99.2322 46.3833 95.2332 41.0204 90.2607C37.5442 95.8448 32.4025 100.255 26.3086 102.805Z" fill="#FF9100"/>
<path d="M41.02 90.2628C28.7787 78.9043 21.3526 62.4644 21.9803 44.4332C22.0006 43.8473 22.0314 43.2623 22.0675 42.6773C16.631 41.2632 10.9175 41.3231 5.51167 42.8511C2.24387 48.5939 0.271839 55.183 0.0260732 62.2406C-0.607864 80.4561 10.3794 96.3716 26.3086 102.807C32.4025 100.257 37.5436 95.8515 41.02 90.2628Z" fill="#FFC400"/>
<path d="M41.02 90.2612C43.8662 85.692 45.5918 80.3347 45.7926 74.563C46.3209 59.3807 36.1477 46.3203 22.0672 42.6758C22.0311 43.2608 22.0006 43.8461 21.9802 44.4317C21.3525 62.4632 28.7787 78.9028 41.02 90.2612Z" fill="#FF9100"/>
<path d="M44.2178 0C36.1985 6.44559 29.8663 14.944 26.0351 24.7342C23.7903 30.4731 22.4494 36.5275 22.0605 42.6801C36.141 46.3243 46.3146 59.385 45.7859 74.5674C45.5851 80.3388 43.8543 85.6908 41.0134 90.2656C46.4281 95.2937 52.7307 99.2637 59.5974 101.972C73.5233 95.5136 83.4038 81.6167 83.9761 65.1798C84.3465 54.5301 80.2683 45.0385 74.5051 37.0269C68.419 28.5535 44.2175 0 44.2175 0" fill="#DD2C00"/>
</g>
<defs>
<clipPath id="clip0_2016_184">
<rect width="84" height="106" fill="white"/>
</clipPath>
</defs>
</svg>
