<svg width="85" height="85" viewBox="0 0 85 85" fill="none" xmlns="http://www.w3.org/2000/svg">
<g clip-path="url(#clip0_2016_155)">
<path d="M65.0781 0H19.9219C8.91933 0 0 8.91933 0 19.9219V65.0781C0 76.0807 8.91933 85 19.9219 85H65.0781C76.0807 85 85 76.0807 85 65.0781V19.9219C85 8.91933 76.0807 0 65.0781 0Z" fill="#F03C2E"/>
<mask id="mask0_2016_155" style="mask-type:luminance" maskUnits="userSpaceOnUse" x="9" y="9" width="67" height="67">
<path d="M9.29688 9.29688H75.7031V75.7031H9.29688V9.29688Z" fill="white"/>
</mask>
<g mask="url(#mask0_2016_155)">
<path d="M74.4499 39.5428L45.4573 10.5501C44.8595 9.95171 44.0976 9.54414 43.268 9.37906C42.4385 9.21397 41.5786 9.29879 40.7972 9.62277C40.2786 9.83799 39.8074 10.1531 39.4104 10.5501L33.3923 16.5682L41.029 24.2049C42.8054 23.5824 44.8391 24.0077 46.2542 25.4231C46.9279 26.098 47.3983 26.9488 47.6115 27.8783C47.8247 28.8078 47.7721 29.7785 47.4598 30.6795L54.8206 38.0403C56.6013 37.4261 58.6555 37.8222 60.077 39.2479C60.7891 39.9596 61.2739 40.8666 61.4702 41.854C61.6665 42.8414 61.5654 43.8649 61.1796 44.7948C60.6626 46.0416 59.6716 47.032 58.4246 47.5484C57.1775 48.0647 55.7765 48.0647 54.5294 47.5484C53.9118 47.2924 53.3507 46.9175 52.8782 46.4447C51.3841 44.9506 51.0148 42.7509 51.7702 40.9101L44.9055 34.0453V52.1101C45.4038 52.3567 45.8592 52.6818 46.2542 53.073C47.2085 54.0274 47.7447 55.3218 47.7447 56.6714C47.7447 58.0211 47.2085 59.3155 46.2542 60.2698C45.2998 61.2242 44.0055 61.7603 42.6558 61.7603C41.3061 61.7603 40.0118 61.2242 39.0574 60.2698C38.3452 59.5584 37.8601 58.6516 37.6635 57.6643C37.4669 56.677 37.5677 55.6536 37.9531 54.7236C38.209 54.1061 38.5843 53.5452 39.0574 53.073C39.5491 52.5833 40.095 52.2118 40.7239 51.9627V33.7299C40.0998 33.4749 39.5332 33.0975 39.0574 32.6199C38.3429 31.9062 37.8571 30.9958 37.662 30.0049C37.4668 29.014 37.5712 27.9874 37.9617 27.0561L30.4289 19.5279L10.5485 39.3874C9.95005 39.9855 9.54242 40.7476 9.37723 41.5774C9.21203 42.4072 9.2967 43.2674 9.62051 44.0491C9.83586 44.568 10.1512 45.0395 10.5485 45.4367L39.5432 74.427C39.9402 74.824 40.4114 75.1391 40.9301 75.3543C41.9781 75.7877 43.1552 75.7877 44.2032 75.3543C44.7218 75.1391 45.1931 74.824 45.5901 74.427L74.4499 45.613C74.8473 45.2159 75.1626 44.7444 75.3777 44.2255C75.5928 43.7065 75.7036 43.1503 75.7037 42.5885C75.7037 42.0267 75.5929 41.4704 75.3778 40.9513C75.1627 40.4323 74.8474 39.9608 74.4499 39.5637" fill="white"/>
</g>
</g>
<defs>
<clipPath id="clip0_2016_155">
<rect width="85" height="85" fill="white"/>
</clipPath>
</defs>
</svg>
