<svg width="76" height="96" viewBox="0 0 76 96" fill="none" xmlns="http://www.w3.org/2000/svg">
<path d="M37.9703 5.66309C19.616 5.65567 4.75 20.5143 4.75 38.8537C4.75 53.3561 14.0496 65.6838 27.0008 70.2111C28.7449 70.649 28.4777 69.4096 28.4777 68.5635V62.8115C18.4063 63.9916 17.998 57.3268 17.3227 56.2135C15.957 53.883 12.7285 53.2893 13.6934 52.176C15.9867 50.9959 18.3246 52.4729 21.0336 56.4732C22.993 59.3752 26.8152 58.8853 28.7523 58.4029C29.1754 56.6588 30.0809 55.1002 31.3277 53.8904C20.8926 52.0201 16.5434 45.6521 16.5434 38.0818C16.5434 34.408 17.7531 31.0311 20.1281 28.3072C18.6141 23.817 20.2691 19.9725 20.4918 19.401C24.8039 19.015 29.2867 22.4885 29.6355 22.7631C32.0848 22.1025 34.8828 21.7537 38.0148 21.7537C41.1617 21.7537 43.9672 22.1174 46.4387 22.7854C47.2773 22.1471 51.4336 19.1635 55.4414 19.5271C55.6566 20.0986 57.2746 23.8541 55.8496 28.285C58.2543 31.0162 59.4789 34.4229 59.4789 38.1041C59.4789 45.6893 55.1 52.0646 44.6352 53.9053C45.5315 54.7868 46.2432 55.838 46.7287 56.9976C47.2142 58.1573 47.4638 59.402 47.4629 60.6592V69.0088C47.5223 69.6768 47.4629 70.3373 48.5762 70.3373C61.7203 65.9064 71.1832 53.4896 71.1832 38.8611C71.1832 20.5143 56.3098 5.66309 37.9703 5.66309Z" fill="white"/>
<path d="M23.81 87.3501V93.0901C23.81 93.1301 23.8 93.2001 23.75 93.2201C23.75 93.2201 22.5 94.1101 20.44 94.1101C17.95 94.1101 15 93.3301 15 88.1901C15 83.0501 17.58 81.9901 20.1 82.0001C22.28 82.0001 23.16 82.4901 23.3 82.5801C23.34 82.6301 23.36 82.6701 23.36 82.7201L22.94 84.5001C22.94 84.5901 22.85 84.7001 22.74 84.6701C22.38 84.5601 21.84 84.3401 20.57 84.3401C19.1 84.3401 17.52 84.7601 17.52 88.0701C17.52 91.3801 19.02 91.7701 20.1 91.7701C21.02 91.7701 21.35 91.6601 21.35 91.6601V89.3601H19.88C19.77 89.3601 19.69 89.2801 19.69 89.1901V87.3501C19.69 87.2601 19.77 87.1801 19.88 87.1801H23.62C23.73 87.1801 23.81 87.2601 23.81 87.3501ZM59.66 89.6801C59.66 93.1101 58.55 94.0901 56.61 94.0901C54.97 94.0901 54.09 93.2601 54.09 93.2601C54.09 93.2601 54.05 93.7201 54 93.7801C53.97 93.8401 53.92 93.8601 53.86 93.8601H52.38C52.28 93.8601 52.19 93.7801 52.19 93.6901L52.21 82.5801C52.21 82.4901 52.29 82.4101 52.38 82.4101H54.51C54.6 82.4101 54.68 82.4901 54.68 82.5801V86.3501C54.68 86.3501 55.5 85.8201 56.7 85.8201L56.69 85.8001C57.89 85.8001 59.66 86.2501 59.66 89.6801ZM42.68 82.4301C42.77 82.4301 42.85 82.5101 42.85 82.6001V93.7101C42.85 93.8001 42.77 93.8801 42.68 93.8801H40.55C40.46 93.8801 40.38 93.8001 40.38 93.7101L40.4 88.9601H37.09V93.7101C37.09 93.8001 37.01 93.8801 36.92 93.8801H34.79C34.71 93.8801 34.62 93.8001 34.62 93.7101V82.6001C34.62 82.5101 34.7 82.4301 34.79 82.4301H36.92C37.01 82.4301 37.09 82.5101 37.09 82.6001V86.6901H40.4V82.6001C40.4 82.5101 40.48 82.4301 40.57 82.4301H42.68ZM50.94 86.0701C51.05 86.0701 51.13 86.1501 51.13 86.2401L51.11 93.7101C51.11 93.8001 51.05 93.8801 50.94 93.8801H49.6C49.53 93.8801 49.46 93.8401 49.44 93.7901C49.41 93.7301 49.36 93.3401 49.36 93.3401C49.36 93.3401 48.23 94.1101 46.84 94.1101C45.15 94.1101 43.92 93.5601 43.92 91.3601V86.2501C43.92 86.1601 44 86.0801 44.09 86.0801H46.23C46.32 86.0801 46.4 86.1601 46.4 86.2501V91.0001C46.4 91.7501 46.62 92.0901 47.37 92.0901C48.12 92.0901 48.67 91.7001 48.67 91.7001V86.2601C48.67 86.1501 48.73 86.0701 48.84 86.0701H50.94ZM33.534 92.0411H33.539C33.5795 92.0501 33.6157 92.0728 33.6414 92.1054C33.6671 92.138 33.6808 92.1785 33.68 92.2201V93.7201C33.68 93.7901 33.65 93.8601 33.59 93.8801C33.49 93.9301 32.85 94.1001 32.32 94.1001C31.16 94.1001 29.46 93.8501 29.46 91.4101V88.1301H28.35C28.26 88.1301 28.18 88.0501 28.18 87.9401V86.5801C28.18 86.5001 28.23 86.4301 28.31 86.4101C28.38 86.4001 29.47 86.1301 29.47 86.1301V83.9601C29.47 83.8801 29.52 83.8301 29.61 83.8301H31.77C31.86 83.8301 31.91 83.8801 31.91 83.9601V86.0701H33.5C33.58 86.0701 33.66 86.1501 33.66 86.2401V87.9401C33.66 88.0501 33.59 88.1301 33.5 88.1301H31.91V91.2611C31.91 91.7311 32.18 92.0911 32.96 92.0911C33.207 92.0911 33.441 92.0421 33.534 92.0411ZM27.24 86.0601C27.33 86.0601 27.41 86.1401 27.41 86.2301V93.6001C27.41 93.7801 27.36 93.8701 27.16 93.8701H25.24C25.07 93.8701 24.94 93.8001 24.94 93.6001V86.2601C24.94 86.1501 25.02 86.0601 25.11 86.0601H27.24ZM57.23 89.8401C57.23 88.0301 56.5 87.7901 55.73 87.8701C55.13 87.9101 54.65 88.2101 54.65 88.2101V91.7301C54.65 91.7301 55.14 92.0701 55.87 92.0901C56.9 92.1201 57.23 91.7501 57.23 89.8401ZM26.19 82.6801C26.94 82.6801 27.55 83.2901 27.55 84.0601C27.55 84.8301 26.94 85.4401 26.19 85.4401C25.42 85.4401 24.81 84.8301 24.81 84.0601C24.81 83.2901 25.42 82.6801 26.19 82.6801ZM33.53 92.0301L33.54 92.0401H33.539L33.534 92.0391V92.0401C33.525 92.0391 33.519 92.0291 33.51 92.0291L33.53 92.0301Z" fill="white"/>
</svg>
