<svg width="110" height="54" viewBox="0 0 110 54" fill="none" xmlns="http://www.w3.org/2000/svg">
<g clip-path="url(#clip0_2031_16)">
<path d="M79.1969 29.2484C84.9844 25.9064 90.7564 22.5373 96.5636 19.2303C102.076 16.0901 108.561 18.9858 109.81 25.096C110.534 28.6306 108.964 32.4491 105.79 34.3088C95.3837 40.4057 84.9625 46.4783 74.4893 52.458C71.2477 54.3087 67.9086 53.9683 64.9545 51.7003C61.9536 49.3977 61.0078 46.2217 61.7117 42.525C62.5152 39.711 64.3542 37.8296 66.8623 36.4222C71.0088 34.0954 75.0887 31.646 79.1969 29.2484Z" fill="#FABC05"/>
<path d="M83.4468 26.8179C77.674 23.45 71.8865 20.1085 66.1338 16.7065C60.6729 13.4769 59.9253 6.38258 64.5633 2.23884C67.2463 -0.157464 71.3202 -0.700488 74.5093 1.13335C84.9645 7.1455 95.4059 13.1831 105.793 19.3119C109.008 21.2088 110.384 24.2868 109.908 27.993C109.425 31.7565 107.163 34.168 103.626 35.4039C100.8 36.1115 98.2603 35.4506 95.7939 33.9705C91.7161 31.5233 87.5662 29.1956 83.4468 26.8179Z" fill="#109D58"/>
<path d="M30.8309 24.4352C27.1265 26.5512 23.42 28.6632 19.7191 30.7856C17.5548 32.0272 15.4137 33.3111 13.2382 34.5319C8.85406 36.9922 3.64539 35.5502 1.15964 31.2168C-1.21266 27.0817 0.150739 21.7205 4.37285 19.2426C14.6961 13.1847 25.046 7.17078 35.4332 1.22387C38.6189 -0.599605 41.9241 -0.370213 44.87 1.81009C47.9793 4.11136 48.9972 7.34963 48.2989 11.1456C47.8658 12.0645 47.6071 13.1415 46.9583 13.8651C45.9039 15.0423 44.705 16.1693 43.3704 16.9971C39.2403 19.5575 35.0173 21.9672 30.8309 24.4352Z" fill="#E94436"/>
<path d="M26.5844 26.8087C30.2596 28.9756 33.9321 31.1473 37.6107 33.3081C39.7621 34.5722 41.9385 35.7943 44.0779 37.0778C48.3894 39.6655 49.7519 44.9212 47.2619 49.252C44.8857 53.3854 39.5864 54.8792 35.3406 52.4414C24.9607 46.482 14.6056 40.4781 4.28968 34.4072C1.12589 32.5452 -0.329034 29.5528 0.0761611 25.8976C0.5037 22.0394 2.78405 19.5343 6.40331 18.2439C7.41093 18.1622 8.46796 17.8486 9.41585 18.0516C10.9571 18.3817 12.5276 18.8616 13.9078 19.6099C18.1785 21.9254 22.3653 24.3973 26.5844 26.8087Z" fill="#4385F3"/>
</g>
<defs>
<clipPath id="clip0_2031_16">
<rect width="110" height="54" fill="white"/>
</clipPath>
</defs>
</svg>
