<svg width="85" height="103" viewBox="0 0 85 103" fill="none" xmlns="http://www.w3.org/2000/svg">
<path d="M42.1508 45.2986C46.4042 45.2986 49.8523 41.8505 49.8523 37.5971C49.8523 33.3436 46.4042 29.8955 42.1508 29.8955C37.8973 29.8955 34.4492 33.3436 34.4492 37.5971C34.4492 41.8505 37.8973 45.2986 42.1508 45.2986Z" fill="#61DAFB"/>
<path d="M42.1516 65.9187C48.1969 71.7984 54.1594 75.2766 58.9625 75.2766C60.5359 75.2766 62.0266 74.9453 63.2688 74.2C67.575 71.7156 69.1484 65.5047 67.6578 56.6438C67.4094 55.0703 67.0781 53.4969 66.6641 51.8406C68.3203 51.3438 69.8109 50.8469 71.3016 50.35C79.6656 47.1203 84.3031 42.6484 84.3031 37.7625C84.3031 32.7938 79.6656 28.3219 71.3016 25.175C69.8109 24.5953 68.3203 24.0984 66.6641 23.6844C67.0781 22.0281 67.4094 20.4547 67.6578 18.8812C69.0656 9.85469 67.4922 3.56094 63.1859 1.07656C61.9438 0.33125 60.4531 0 58.8797 0C54.1594 0 48.1141 3.47812 42.0688 9.35781C36.1063 3.47812 30.1438 0 25.3406 0C23.7672 0 22.2766 0.33125 21.0344 1.07656C16.7281 3.56094 15.1547 9.77188 16.6453 18.6328C16.8938 20.2062 17.225 21.7797 17.6391 23.4359C15.9828 23.9328 14.4922 24.4297 13.0016 24.9266C4.6375 28.1562 0 32.6281 0 37.5141C0 42.4828 4.6375 46.9547 13.0016 50.1016C14.4922 50.6813 15.9828 51.1781 17.6391 51.5922C17.225 53.2484 16.8938 54.8219 16.6453 56.3953C15.2375 65.2562 16.8109 71.55 21.0344 73.9516C22.2766 74.6969 23.7672 75.0281 25.3406 75.0281C30.1438 75.1937 36.1063 71.7156 42.1516 65.9187ZM37.5141 54.7391C39.0047 54.8219 40.5781 54.8219 42.1516 54.8219C43.725 54.8219 45.2984 54.8219 46.7891 54.7391C45.2984 56.7266 43.725 58.5484 42.1516 60.2875C40.5781 58.5484 39.0047 56.7266 37.5141 54.7391ZM27.2453 46.2094C28.0734 47.6172 28.8188 48.9422 29.7297 50.2672C27.1625 49.9359 24.7609 49.5219 22.4422 49.025C23.1875 46.7891 24.0156 44.4703 25.0094 42.1516C25.6719 43.4766 26.4172 44.8844 27.2453 46.2094ZM22.4422 26.2516C24.7609 25.7547 27.1625 25.3406 29.7297 25.0094C28.9016 26.3344 28.0734 27.6594 27.2453 29.0672C26.4172 30.475 25.6719 31.8 25.0094 33.2078C23.9328 30.8063 23.1047 28.4875 22.4422 26.2516ZM26.9969 37.5969C28.0734 35.3609 29.2328 33.125 30.5578 30.8891C31.8 28.7359 33.2078 26.5828 34.6156 24.4297C37.1 24.2641 39.5844 24.1812 42.1516 24.1812C44.8016 24.1812 47.2859 24.2641 49.6875 24.4297C51.1781 26.5828 52.5031 28.7359 53.7453 30.8891C55.0703 33.125 56.2297 35.3609 57.3063 37.5969C56.2297 39.8328 55.0703 42.0687 53.7453 44.3047C52.5031 46.4578 51.0953 48.6109 49.6875 50.7641C47.2031 50.9297 44.7188 51.0125 42.1516 51.0125C39.5016 51.0125 37.0172 50.9297 34.6156 50.7641C33.125 48.6109 31.8 46.4578 30.5578 44.3047C29.2328 42.0687 28.0734 39.8328 26.9969 37.5969ZM59.3766 33.125L57.1406 28.9844C56.3125 27.5766 55.5672 26.2516 54.6563 24.9266C57.2234 25.2578 59.625 25.6719 61.9438 26.1688C61.1984 28.4875 60.3703 30.8062 59.3766 33.125ZM59.3766 42.0688C60.3703 44.3875 61.1984 46.7063 61.9438 48.9422C59.625 49.4391 57.2234 49.8531 54.6563 50.1844C55.4844 48.8594 56.3125 47.5344 57.1406 46.1266C57.8859 44.8844 58.6313 43.4766 59.3766 42.0688ZM61.2813 70.8047C60.6188 71.2188 59.7906 71.3844 58.8797 71.3844C54.8219 71.3844 49.7703 68.0719 44.8016 63.1031C47.2031 60.5359 49.5219 57.6375 51.8406 54.4078C55.7328 54.0766 59.4594 53.4969 62.9375 52.6687C63.3516 54.1594 63.6 55.65 63.8484 57.1406C65.0078 64.1797 64.0969 69.2312 61.2813 70.8047ZM65.5875 27.1625C74.8625 29.8125 80.4109 33.8703 80.4109 37.5969C80.4109 40.8266 76.6016 44.0563 69.8938 46.6234C68.5688 47.1203 67.0781 47.6172 65.5875 48.0312C64.5109 44.6359 63.1859 41.1578 61.5297 37.5969C63.1859 34.0359 64.5938 30.5578 65.5875 27.1625ZM58.9625 3.80937C59.8734 3.80937 60.6188 3.975 61.3641 4.38906C64.0969 5.9625 65.0906 10.9312 63.9313 18.0531C63.6828 19.4609 63.3516 20.9516 63.0203 22.525C59.5422 21.7797 55.8156 21.2 51.9234 20.7859C49.6875 17.5562 47.2859 14.6578 44.8844 12.0906C49.8531 7.20469 54.9047 3.80937 58.9625 3.80937ZM46.7891 20.4547C45.2984 20.3719 43.725 20.3719 42.1516 20.3719C40.5781 20.3719 39.0047 20.3719 37.5141 20.4547C39.0047 18.4672 40.5781 16.6453 42.1516 14.9062C43.725 16.6453 45.2984 18.55 46.7891 20.4547ZM23.0219 4.38906C23.6844 3.975 24.5125 3.80937 25.4234 3.80937C29.4813 3.80937 34.5328 7.12188 39.5016 12.0906C37.1 14.6578 34.7812 17.5562 32.4625 20.7859C28.5703 21.1172 24.8438 21.6969 21.3656 22.525C20.9516 21.0344 20.7031 19.5437 20.4547 18.0531C19.2953 11.0141 20.2063 6.04531 23.0219 4.38906ZM18.7156 48.0312C9.44063 45.3812 3.89219 41.3234 3.89219 37.5969C3.89219 34.3672 7.70156 31.1375 14.4094 28.5703C15.7344 28.0734 17.225 27.5766 18.7156 27.1625C19.7922 30.5578 21.1172 34.0359 22.7734 37.5969C21.1172 41.1578 19.7094 44.7188 18.7156 48.0312ZM20.4547 57.1406C20.7031 55.7328 21.0344 54.2422 21.3656 52.6687C24.8438 53.4141 28.5703 53.9938 32.4625 54.4078C34.6984 57.6375 37.1 60.5359 39.5016 63.1031C34.5328 67.9891 29.4813 71.3844 25.4234 71.3844C24.5125 71.3844 23.7672 71.2188 23.0219 70.8047C20.2063 69.2312 19.2953 64.1797 20.4547 57.1406ZM16.9766 91.2594C18.7984 89.0234 18.8813 86.5391 17.8875 84.0547C16.8938 81.5703 14.8234 80.4109 12.2563 80.3281C9.19219 80.2453 6.04531 80.3281 2.98125 80.3281H2.40156V101.777H4.88594V93.6609H8.77813C9.275 93.6609 9.68906 93.8266 9.9375 94.2406L14.9063 101.942C14.9891 102.108 15.2375 102.356 15.4031 102.356H18.6328C16.6453 99.2922 14.7406 96.3938 12.7531 93.4125C14.4922 93.1641 15.9828 92.5844 16.9766 91.2594ZM4.88594 91.0938V82.8953H5.79688C7.70156 82.8953 9.68906 82.8125 11.5938 82.9781C13.8297 83.0609 15.4031 84.8 15.4031 87.0359C15.4031 89.2719 13.5813 91.0109 11.3453 91.0938C9.35781 91.1766 7.37031 91.0938 4.88594 91.0938ZM36.9344 92.1703C35.6094 86.3734 30.3094 84.8828 26.2516 86.7047C23.1047 88.1125 21.6969 90.8453 21.6141 94.2406C21.5313 96.8078 22.2766 99.1266 24.2641 100.866C26.5 102.853 29.2328 103.102 32.0484 102.605C33.6219 102.273 35.0297 101.528 36.1063 100.369C35.6922 99.7891 35.2781 99.2094 34.8641 98.7125C32.5453 100.7 29.9781 101.363 27.1625 100.038C25.3406 99.1266 24.4297 96.8906 24.2641 95.2344H37.1V94.1578C37.1828 93.4125 37.1 92.75 36.9344 92.1703ZM24.4297 93.4953C24.1812 91.0109 26.6656 88.3609 29.3984 88.3609C32.5453 88.2781 34.5328 90.1828 34.6156 93.4953H24.4297ZM49.8531 86.2906C48.6109 86.0422 47.2859 85.9594 46.0438 86.0422C44.0563 86.2078 42.3172 87.1188 40.9094 88.6094C41.3234 89.1891 41.6547 89.7688 42.1516 90.4313C42.3172 90.2656 42.4828 90.1 42.6484 90.0172C43.9734 88.775 45.5469 88.1125 47.4516 88.2781C48.9422 88.3609 50.35 88.8578 50.7641 90.3484C51.0953 91.5078 51.0125 92.75 51.0953 93.9922C50.8469 93.9922 50.7641 93.9094 50.6813 93.8266C48.6938 92.1703 46.4578 91.8391 44.0563 92.4187C41.8203 92.9984 40.4125 94.7375 40.2469 96.9734C40.0813 99.5406 41.2406 101.445 43.4766 102.356C44.8844 102.936 46.4578 102.936 47.9484 102.605C49.1078 102.356 49.6047 101.694 51.2609 100.783V101.859H53.5797C53.5797 98.5469 53.6625 94.4891 53.5797 90.6797C53.5797 88.2781 52.1719 86.7875 49.8531 86.2906ZM51.0125 96.725C50.9297 96.9734 51.0125 97.2219 51.0125 97.4703C51.0125 99.2094 50.5984 99.7891 48.9422 100.452C47.7828 100.866 46.5406 101.031 45.2984 100.617C43.8906 100.203 42.8969 98.9609 42.8969 97.5531C42.8141 96.1453 43.725 94.7375 45.1328 94.3234C47.0375 93.6609 48.7766 94.075 50.35 95.2344C50.8469 95.6484 51.1781 96.0625 51.0125 96.725ZM63.9313 88.5266C66.0844 87.8641 68.0719 88.2781 69.5625 90.1L69.8109 90.2656C70.3906 89.7688 70.8875 89.2719 71.55 88.6922C71.3016 88.4437 71.2188 88.2781 71.0531 88.0297C68.6516 85.4625 63.9313 85.1313 61.0328 87.2016C56.975 90.1828 57.0578 95.9797 59.0453 99.0437C60.95 101.942 63.6828 102.936 66.9125 102.522C68.8172 102.273 70.3906 101.363 71.6328 99.7891C71.0531 99.2922 70.4734 98.7953 69.8938 98.2156C69.7281 98.3812 69.6453 98.4641 69.5625 98.6297C67.3266 101.114 63.6 100.866 61.6125 98.2156C60.4531 96.6422 60.2047 94.8203 60.5359 92.9984C60.7016 90.9281 61.7781 89.2719 63.9313 88.5266ZM81.1563 99.7891C80.9906 99.8719 80.9078 99.9547 80.9078 99.9547C80.2453 100.452 79.5828 100.534 78.8375 100.286C78.0922 99.9547 78.0094 99.2922 77.9266 98.6297V89.1891C77.9266 89.0234 77.9266 89.3547 78.0094 88.5266H81.1563V86.0422H77.8438V81.9016H75.3594V86.3734H73.2063C73.0406 86.3734 72.7922 86.5391 72.7922 86.7047C72.7094 87.2844 72.7922 87.6984 72.7922 88.5266H75.4422V99.1266C75.4422 100.452 75.7734 101.611 76.9328 102.273C78.175 103.019 80.5766 102.853 81.6531 101.942C81.8188 101.859 81.9016 101.528 81.9016 101.445C81.6531 100.948 81.4047 100.369 81.1563 99.7891Z" fill="#61DAFB"/>
</svg>
