<svg width="80" height="113" viewBox="0 0 80 113" fill="none" xmlns="http://www.w3.org/2000/svg">
<g clip-path="url(#clip0_2016_177)">
<path d="M79.8605 22.1514L72.5977 103.649L39.9509 112.715L7.39398 103.662L0.138672 22.1514H79.8605Z" fill="#E44D26"/>
<path d="M40 105.785L66.3803 98.4591L72.5866 28.8154H40V105.785Z" fill="#F16529"/>
<path d="M25.8818 48.8094H40.0005V38.8125H14.9746L15.2134 41.4945L17.6665 69.0433H40.0005V59.0464H26.794L25.8818 48.8094ZM28.1312 74.0419H18.1124L19.5105 89.7386L39.9546 95.423L40.0005 95.4105V85.0095L39.9568 85.021L28.8418 82.0148L28.1312 74.0419Z" fill="#EBEBEB"/>
<path d="M7.55664 0H12.6285V5.01927H17.2682V0H22.3404V15.1996H17.2685V10.1099H12.6288V15.1996H7.55695L7.55664 0ZM29.0098 5.04055H24.5454V0H38.5498V5.04055H34.0826V15.1996H29.0107V5.04055H29.0098ZM40.7723 0H46.0607L49.3138 5.34074L52.5638 0H57.8545V15.1996H52.8032V7.66584L49.3138 13.0701H49.2263L45.7348 7.66584V15.1996H40.7723V0ZM60.3785 0H65.452V10.1756H72.5844V15.1996H60.3782L60.3785 0Z" fill="white"/>
<path d="M39.9652 69.0433H52.2548L51.0961 82.0086L39.9648 85.0179V95.4183L60.4252 89.7386L60.5752 88.0495L62.9208 61.7308L63.1642 59.0464H39.9652V69.0433ZM39.9652 48.785V48.8094H64.0723L64.2723 46.5625L64.7273 41.4945L64.9658 38.8125H39.9652V48.785Z" fill="white"/>
</g>
<defs>
<clipPath id="clip0_2016_177">
<rect width="80" height="113" fill="white"/>
</clipPath>
</defs>
</svg>
