<svg width="171" height="152" viewBox="0 0 171 152" fill="none" xmlns="http://www.w3.org/2000/svg">
<path d="M103.55 9.5C101.145 13.6859 99.75 18.5547 99.75 23.75V28.5H19V95H99.75V114H19C8.52031 114 0 105.48 0 95V28.5C0 18.0203 8.52031 9.5 19 9.5H103.55ZM99.75 128.25C99.75 133.445 101.145 138.314 103.55 142.5H35.625C31.6766 142.5 28.5 139.323 28.5 135.375C28.5 131.427 31.6766 128.25 35.625 128.25H99.75ZM128.25 9.5H156.75C164.617 9.5 171 15.8828 171 23.75V128.25C171 136.117 164.617 142.5 156.75 142.5H128.25C120.383 142.5 114 136.117 114 128.25V23.75C114 15.8828 120.383 9.5 128.25 9.5ZM135.375 28.5C131.427 28.5 128.25 31.6766 128.25 35.625C128.25 39.5734 131.427 42.75 135.375 42.75H149.625C153.573 42.75 156.75 39.5734 156.75 35.625C156.75 31.6766 153.573 28.5 149.625 28.5H135.375ZM135.375 57C131.427 57 128.25 60.1766 128.25 64.125C128.25 68.0734 131.427 71.25 135.375 71.25H149.625C153.573 71.25 156.75 68.0734 156.75 64.125C156.75 60.1766 153.573 57 149.625 57H135.375ZM152 99.75C152 97.2304 150.999 94.8141 149.218 93.0325C147.436 91.2509 145.02 90.25 142.5 90.25C139.98 90.25 137.564 91.2509 135.782 93.0325C134.001 94.8141 133 97.2304 133 99.75C133 102.27 134.001 104.686 135.782 106.468C137.564 108.249 139.98 109.25 142.5 109.25C145.02 109.25 147.436 108.249 149.218 106.468C150.999 104.686 152 102.27 152 99.75Z" fill="black"/>
</svg>
