<svg width="174" height="155" viewBox="0 0 174 155" fill="none" xmlns="http://www.w3.org/2000/svg">
<path d="M33.8333 19.3335H4.83333C2.175 19.3335 0 21.5085 0 24.1668V130.5C0 133.159 2.175 135.333 4.83333 135.333H33.8333C36.4917 135.333 38.6667 133.159 38.6667 130.5V24.1668C38.6667 21.5085 36.4917 19.3335 33.8333 19.3335ZM29 48.3335H9.66667V38.6668H29V48.3335ZM82.1667 19.3335H53.1667C50.5083 19.3335 48.3333 21.5085 48.3333 24.1668V130.5C48.3333 133.159 50.5083 135.333 53.1667 135.333H82.1667C84.825 135.333 87 133.159 87 130.5V24.1668C87 21.5085 84.825 19.3335 82.1667 19.3335ZM77.3333 48.3335H58V38.6668H77.3333V48.3335Z" fill="black"/>
<path d="M115.557 26.8046L89.6601 39.8546C88.5158 40.4306 87.647 41.4374 87.2446 42.6536C86.8422 43.8699 86.9392 45.1961 87.5141 46.341L131.014 132.664C131.59 133.809 132.597 134.677 133.813 135.08C135.029 135.482 136.356 135.385 137.5 134.81L163.397 121.76C164.542 121.184 165.41 120.178 165.813 118.961C166.215 117.745 166.118 116.419 165.543 115.274L122.043 28.9506C121.467 27.8063 120.461 26.9375 119.244 26.5352C118.028 26.1328 116.702 26.2297 115.557 26.8046Z" fill="black"/>
<path d="M140.167 130.5C140.167 131.782 139.657 133.011 138.751 133.918C137.845 134.824 136.615 135.333 135.333 135.333C134.051 135.333 132.822 134.824 131.916 133.918C131.009 133.011 130.5 131.782 130.5 130.5C130.5 129.218 131.009 127.989 131.916 127.082C132.822 126.176 134.051 125.667 135.333 125.667C136.615 125.667 137.845 126.176 138.751 127.082C139.657 127.989 140.167 129.218 140.167 130.5Z" fill="black"/>
</svg>
