<svg width="115" height="115" viewBox="0 0 115 115" fill="none" xmlns="http://www.w3.org/2000/svg">
<path d="M0.125 0.125V114.875H114.875V0.125H0.125ZM57.5 57.5H67.0625V95.75C67.0549 98.2838 66.045 100.712 64.2534 102.503C62.4617 104.295 60.0338 105.305 57.5 105.312H47.9375C45.4037 105.305 42.9758 104.295 41.1842 102.503C39.3925 100.712 38.3826 98.2838 38.375 95.75V86.1875H47.9375V95.75H57.5V57.5ZM86.1875 57.5H105.312V67.0625H86.1875V76.625H95.75C98.2838 76.6326 100.712 77.6425 102.503 79.4341C104.295 81.2258 105.305 83.6537 105.312 86.1875V95.75C105.305 98.2838 104.295 100.712 102.503 102.503C100.712 104.295 98.2838 105.305 95.75 105.312H76.625V95.75H95.75V86.1875H86.1875C83.6537 86.1799 81.2258 85.17 79.4341 83.3784C77.6425 81.5867 76.6326 79.1588 76.625 76.625V67.0625C76.6326 64.5287 77.6425 62.1008 79.4341 60.3091C81.2258 58.5175 83.6537 57.5076 86.1875 57.5Z" fill="#FFCA28"/>
</svg>
