<svg width="82" height="24" viewBox="0 0 82 24" fill="none" xmlns="http://www.w3.org/2000/svg">
<path d="M19.4808 12.0909C19.4808 14.392 19.0653 16.3807 18.2344 18.0568C17.4034 19.733 16.2635 21.0256 14.8146 21.9347C13.3658 22.8438 11.7109 23.2983 9.85014 23.2983C7.98935 23.2983 6.33452 22.8438 4.88565 21.9347C3.43679 21.0256 2.29688 19.733 1.46591 18.0568C0.634943 16.3807 0.21946 14.392 0.21946 12.0909C0.21946 9.78977 0.634943 7.80114 1.46591 6.125C2.29688 4.44886 3.43679 3.15625 4.88565 2.24716C6.33452 1.33807 7.98935 0.883522 9.85014 0.883522C11.7109 0.883522 13.3658 1.33807 14.8146 2.24716C16.2635 3.15625 17.4034 4.44886 18.2344 6.125C19.0653 7.80114 19.4808 9.78977 19.4808 12.0909ZM16.924 12.0909C16.924 10.2017 16.608 8.60724 15.9759 7.30753C15.3509 6.00781 14.5021 5.02415 13.4297 4.35653C12.3643 3.68892 11.1712 3.35511 9.85014 3.35511C8.52912 3.35511 7.33239 3.68892 6.25994 4.35653C5.1946 5.02415 4.34588 6.00781 3.71378 7.30753C3.08878 8.60724 2.77628 10.2017 2.77628 12.0909C2.77628 13.9801 3.08878 15.5746 3.71378 16.8743C4.34588 18.174 5.1946 19.1577 6.25994 19.8253C7.33239 20.4929 8.52912 20.8267 9.85014 20.8267C11.1712 20.8267 12.3643 20.4929 13.4297 19.8253C14.5021 19.1577 15.3509 18.174 15.9759 16.8743C16.608 15.5746 16.924 13.9801 16.924 12.0909ZM23.9233 23V1.18182H31.2955C33 1.18182 34.3991 1.47301 35.4929 2.0554C36.5866 2.63068 37.3963 3.42258 37.9219 4.43111C38.4474 5.43963 38.7102 6.58665 38.7102 7.87216C38.7102 9.15767 38.4474 10.2976 37.9219 11.2919C37.3963 12.2862 36.5902 13.0675 35.5036 13.6357C34.4169 14.1967 33.0284 14.4773 31.3381 14.4773H25.3722V12.0909H31.2528C32.4176 12.0909 33.3551 11.9205 34.0653 11.5795C34.7827 11.2386 35.3011 10.7557 35.6207 10.1307C35.9474 9.49858 36.1108 8.74574 36.1108 7.87216C36.1108 6.99858 35.9474 6.23508 35.6207 5.58168C35.294 4.92827 34.772 4.42401 34.0547 4.06889C33.3374 3.70668 32.3892 3.52557 31.2102 3.52557H26.5653V23H23.9233ZM34.1932 13.1989L39.5625 23H36.4943L31.2102 13.1989H34.1932ZM60.6696 8H58.0275C57.8713 7.24006 57.5978 6.57244 57.2072 5.99716C56.8237 5.42188 56.3549 4.93892 55.801 4.5483C55.2541 4.15057 54.6468 3.85227 53.9792 3.65341C53.3116 3.45455 52.6156 3.35511 51.8912 3.35511C50.5701 3.35511 49.3734 3.68892 48.301 4.35653C47.2356 5.02415 46.3869 6.00781 45.7548 7.30753C45.1298 8.60724 44.8173 10.2017 44.8173 12.0909C44.8173 13.9801 45.1298 15.5746 45.7548 16.8743C46.3869 18.174 47.2356 19.1577 48.301 19.8253C49.3734 20.4929 50.5701 20.8267 51.8912 20.8267C52.6156 20.8267 53.3116 20.7273 53.9792 20.5284C54.6468 20.3295 55.2541 20.0348 55.801 19.6442C56.3549 19.2464 56.8237 18.7599 57.2072 18.1847C57.5978 17.6023 57.8713 16.9347 58.0275 16.1818H60.6696C60.4707 17.2969 60.1085 18.2947 59.5829 19.1754C59.0574 20.0561 58.4039 20.8054 57.6227 21.4233C56.8414 22.0341 55.9643 22.4993 54.9913 22.8189C54.0254 23.1385 52.992 23.2983 51.8912 23.2983C50.0304 23.2983 48.3755 22.8438 46.9267 21.9347C45.4778 21.0256 44.3379 19.733 43.5069 18.0568C42.676 16.3807 42.2605 14.392 42.2605 12.0909C42.2605 9.78977 42.676 7.80114 43.5069 6.125C44.3379 4.44886 45.4778 3.15625 46.9267 2.24716C48.3755 1.33807 50.0304 0.883522 51.8912 0.883522C52.992 0.883522 54.0254 1.04332 54.9913 1.36293C55.9643 1.68253 56.8414 2.15128 57.6227 2.76918C58.4039 3.37997 59.0574 4.12571 59.5829 5.00639C60.1085 5.87997 60.4707 6.87784 60.6696 8ZM65.8338 23H63.0639L71.0753 1.18182H73.8026L81.8139 23H79.044L72.5241 4.63352H72.3537L65.8338 23ZM66.8565 14.4773H78.0213V16.821H66.8565V14.4773Z" fill="white"/>
</svg>
