<svg width="97" height="97" viewBox="0 0 97 97" fill="none" xmlns="http://www.w3.org/2000/svg">
<path d="M69.7149 67.8386V29.0993L44.2524 48.4386M7.08929 36.7986C6.46748 36.1357 6.11641 35.2639 6.10519 34.3551C6.09397 33.4462 6.42342 32.5661 7.02866 31.888L12.1212 27.1593C12.9699 26.3711 15.0312 26.068 16.5468 27.1593L31.0362 38.2536L64.683 7.3955C66.0168 6.06175 68.3812 5.4555 71.0487 6.9105L88.0237 15.0343C89.5393 15.9436 90.9943 17.338 90.9943 19.9449V77.478C90.9943 79.1755 89.7818 80.9943 88.448 81.7218L69.7755 90.6943C68.4418 91.2399 65.8955 90.6943 64.9862 89.8455L30.9755 58.7449L16.5468 69.8393C14.9099 70.9305 12.9093 70.6274 12.0605 69.8393L6.96804 65.1711C5.63429 63.7768 5.75554 61.473 7.21054 60.0786L19.9418 48.5599" fill="#2196F3"/>
</svg>
