<svg width="110" height="110" viewBox="0 0 110 110" fill="none" xmlns="http://www.w3.org/2000/svg">
<g clip-path="url(#clip0_2016_115)">
<path d="M84.2188 0H25.7812C11.5427 0 0 11.5427 0 25.7812V84.2188C0 98.4573 11.5427 110 25.7812 110H84.2188C98.4573 110 110 98.4573 110 84.2188V25.7812C110 11.5427 98.4573 0 84.2188 0Z" fill="#0073AA"/>
<path d="M18.1406 54.9963C18.1406 69.5863 26.6197 82.1951 38.9147 88.1703L21.3319 39.9955C19.2247 44.7156 18.1372 49.8272 18.1406 54.9963ZM79.8841 53.1362C79.8841 48.5811 78.2479 45.4263 76.8445 42.9706C74.9758 39.9345 73.2244 37.3632 73.2244 34.327C73.2244 30.9385 75.7944 27.7846 79.4141 27.7846C79.5778 27.7846 79.7325 27.8048 79.8919 27.8138C73.334 21.8059 64.5972 18.1377 55.0005 18.1377C42.1236 18.1377 30.7941 24.7446 24.2035 34.752C25.0681 34.7778 25.8832 34.7963 26.5754 34.7963C30.431 34.7963 36.3989 34.3279 36.3989 34.3279C38.3858 34.211 38.6204 37.1295 36.6352 37.3645C36.6352 37.3645 34.6385 37.5995 32.4166 37.716L45.8391 77.6417L53.9057 53.449L48.1629 37.7147C46.1782 37.5982 44.2979 37.3632 44.2979 37.3632C42.3114 37.2468 42.5443 34.2097 44.5307 34.327C44.5307 34.327 50.6177 34.7945 54.2395 34.7945C58.0947 34.7945 64.0631 34.327 64.0631 34.327C66.0516 34.2097 66.285 37.1282 64.2994 37.3632C64.2994 37.3632 62.2983 37.5982 60.0807 37.7147L73.4015 77.3379L77.0779 65.0523C78.6716 59.9536 79.8841 56.2918 79.8841 53.1362Z" fill="white"/>
<path d="M55.6394 58.2211L44.5801 90.3574C47.9613 91.3532 51.4679 91.8589 54.9927 91.8592C59.1616 91.8605 63.3004 91.154 67.2328 89.7696C67.1305 89.6084 67.0428 89.4384 66.9707 89.2617L55.6394 58.2211ZM87.3357 37.3125C87.5031 38.5688 87.5861 39.8349 87.5841 41.1023C87.5841 44.8428 86.8854 49.0477 84.7812 54.3054L73.5221 86.858C84.4804 80.4677 91.8513 68.5959 91.8513 54.9976C91.8517 48.5888 90.215 42.5624 87.3357 37.3125Z" fill="white"/>
<path d="M54.9991 12.0312C31.307 12.0312 12.0312 31.3057 12.0312 54.9974C12.0312 78.6921 31.307 97.9657 54.9991 97.9657C78.69 97.9657 97.9688 78.6921 97.9688 54.9974C97.9679 31.3057 78.69 12.0312 54.9991 12.0312ZM54.9991 95.9965C32.3933 95.9965 14.0014 77.6041 14.0014 54.9974C14.0014 32.392 32.3929 14.0014 54.9991 14.0014C77.6037 14.0014 95.9943 32.392 95.9943 54.9974C95.9943 77.6041 77.6037 95.9965 54.9991 95.9965Z" fill="white"/>
</g>
<defs>
<clipPath id="clip0_2016_115">
<rect width="110" height="110" fill="white"/>
</clipPath>
</defs>
</svg>
